<svg width="26" height="34" viewBox="0 0 26 34" fill="none" xmlns="http://www.w3.org/2000/svg">
<path d="M6.69999 21.5C6.46129 21.5 6.23237 21.4052 6.06359 21.2364C5.89481 21.0676 5.79999 20.8387 5.79999 20.6C5.79999 20.3613 5.89481 20.1324 6.06359 19.9636C6.23237 19.7948 6.46129 19.7 6.69999 19.7H19.3C19.5387 19.7 19.7676 19.7948 19.9364 19.9636C20.1052 20.1324 20.2 20.3613 20.2 20.6C20.2 20.8387 20.1052 21.0676 19.9364 21.2364C19.7676 21.4052 19.5387 21.5 19.3 21.5H6.69999ZM6.69999 26C6.46129 26 6.23237 25.9052 6.06359 25.7364C5.89481 25.5676 5.79999 25.3387 5.79999 25.1C5.79999 24.8613 5.89481 24.6324 6.06359 24.4636C6.23237 24.2948 6.46129 24.2 6.69999 24.2H19.3C19.5387 24.2 19.7676 24.2948 19.9364 24.4636C20.1052 24.6324 20.2 24.8613 20.2 25.1C20.2 25.3387 20.1052 25.5676 19.9364 25.7364C19.7676 25.9052 19.5387 26 19.3 26H6.69999Z" fill="#EBDBB2"/>
<path fill-rule="evenodd" clip-rule="evenodd" d="M15.133 0.799988H3.09999C2.38391 0.799988 1.69715 1.08445 1.19081 1.5908C0.684457 2.09715 0.399994 2.7839 0.399994 3.49999V30.5C0.399994 31.2161 0.684457 31.9028 1.19081 32.4092C1.69715 32.9155 2.38391 33.2 3.09999 33.2H22.9C23.6161 33.2 24.3028 32.9155 24.8092 32.4092C25.3155 31.9028 25.6 31.2161 25.6 30.5V11.9636C25.5998 11.2876 25.3461 10.6363 24.889 10.1384L17.1238 1.67479C16.8707 1.39893 16.5631 1.17871 16.2204 1.02811C15.8776 0.877512 15.5073 0.799826 15.133 0.799988ZM2.19999 3.49999C2.19999 3.26129 2.29482 3.03237 2.4636 2.86359C2.63238 2.69481 2.8613 2.59999 3.09999 2.59999H15.133C15.2579 2.59985 15.3814 2.62571 15.4958 2.67591C15.6101 2.72611 15.7128 2.79956 15.7972 2.89159L23.5624 11.3552C23.715 11.5211 23.7998 11.7382 23.8 11.9636V30.5C23.8 30.7387 23.7052 30.9676 23.5364 31.1364C23.3676 31.3052 23.1387 31.4 22.9 31.4H3.09999C2.8613 31.4 2.63238 31.3052 2.4636 31.1364C2.29482 30.9676 2.19999 30.7387 2.19999 30.5V3.49999Z" fill="#EBDBB2"/>
<path d="M15.7 2.78V11.24H24.16" stroke="#EBDBB2" stroke-width="1.8" stroke-linecap="round" stroke-linejoin="round"/>
<path d="M9.6412 10.0394C9.89824 10.0473 10.1543 10.0034 10.394 9.91051C10.6338 9.81757 10.8525 9.67743 11.0371 9.49839C11.2217 9.31936 11.3685 9.10507 11.4687 8.86824C11.5689 8.63141 11.6206 8.37686 11.6206 8.1197C11.6206 7.86253 11.5689 7.60799 11.4687 7.37116C11.3685 7.13433 11.2217 6.92004 11.0371 6.741C10.8525 6.56196 10.6338 6.42182 10.394 6.32889C10.1543 6.23595 9.89824 6.19212 9.6412 6.2C9.14224 6.21528 8.66883 6.42423 8.32129 6.78257C7.97375 7.14092 7.77939 7.6205 7.77939 8.1197C7.77939 8.61889 7.97375 9.09847 8.32129 9.45682C8.66883 9.81516 9.14224 10.0241 9.6412 10.0394Z" fill="#EBDBB2"/>
<path fill-rule="evenodd" clip-rule="evenodd" d="M13.4788 14.1992C13.4788 12.158 11.7598 10.6802 9.63939 10.6802C7.51899 10.6802 5.79999 12.1562 5.79999 14.1992V15.1604C5.80046 15.33 5.86819 15.4925 5.98831 15.6123C6.10843 15.7321 6.27115 15.7994 6.44079 15.7994H12.8398C13.0091 15.7989 13.1714 15.7314 13.2911 15.6117C13.4108 15.492 13.4783 15.3297 13.4788 15.1604V14.1992Z" fill="#EBDBB2"/>
</svg>
